/* XPM */
static char * gs_l_xpm[] = {
/* width height ncolors cpp [x_hot y_hot] */
"48 48 4 1 0 0",
/* colors */
" 	s none	m none	c none",
".	s iconColor1	m black	c black",
"X	s iconColor2	m white	c white",
"o	s iconColor5	m black	c blue",
/* pixels */
"                             .                  ",
"                            .X..                ",
"                             .X..               ",
"                             .XX..              ",
"                         .....XX..              ",
"                .............XXX...             ",
"             ...............XXXX...             ",
"           ..............XXXXXX....             ",
"          ...........XXXXXXXXX......            ",
"         ..........XXXXXXXXX.........           ",
"        .........XXXXXXXXXX..........           ",
"        .........XXXXXoXXX............          ",
"       .........XXXoXXooXX............          ",
"       .........XXXooXooXXX...........          ",
"       .........XXXooXXoXXXX..........          ",
"       .........XXXXoXXXXXXXX.........          ",
"        .........XXXXXXXXXXXXX........          ",
"        .........XXXXXXooXXXXXX......           ",
"         .........XXXXXoooXXXXX......           ",
"          ..........XXXXooXXXXX.....            ",
"           ..........XXXooXXXX....              ",
"             ........XXXXXXXX....               ",
"            .........XXXXXX...                  ",
"          ..........XXXXXXX                     ",
"        ........XXXXXXXXXXXX                    ",
"       ........XXXXXXXXXXXXXX                   ",
"      ..........XXXXXXXXXXXXXXX                 ",
"      ..................XXXXXXXXX               ",
"      ...........................X              ",
"      ..............................            ",
"       ................................         ",
"       .................................        ",
"        .................................       ",
"          ................................      ",
"              ............................      ",
"               XXXXXXXXXXXXX..............      ",
"      ........XXXXXXXXXXXXXXXXXX..........      ",
"     .......XXXXXXXXXXXXXXXXXXXXX.........      ",
"    .......XXXXXXX......XXXXXXXXXX.......X      ",
"    .......XXXXXX...XXXXXXXXXXXX........XX.     ",
"    .......XXXXXX......XXXXXX..........XX.      ",
"    ........XXXXXX...................XXX.       ",
"     ........XXXXXXX..............XXXX..        ",
"      ..........XXXXXXXXXXXXXXXXXXX....         ",
"       .............XXXXXXX...........          ",
"         ..........................             ",
"             ...................                ",
"                                                "};
