/* XPM */
static char * gs_m_xpm[] = {
/* width height ncolors cpp [x_hot y_hot] */
"32 32 6 1 0 0",
/* colors */
" 	s none	m none	c none",
".	s iconColor1	m black	c black",
"X	s iconColor2	m white	c white",
"o	c #C0C0C0C0C0C0",
"O	c #808080808080",
"+	c #00000000FFFF",
/* pixels */
"                    .X          ",
"                    .X.         ",
"                   .XX.         ",
"           ........XXX..        ",
"        .........oXXXo..        ",
"       .......XXXXXXO...        ",
"      ......XXXXXXX......       ",
"      .....XXXX+XX........      ",
"     ......XX+X+XX........      ",
"     ......XX+XXXXX.......      ",
"     ......XXXXXXXXX......      ",
"      ......XXXX++XXX....       ",
"       .....OXXX++XXX...        ",
"        ......XXXXXXX..         ",
"          .....XXXXX.           ",
"      ........XXXXXXX           ",
"     .....XXXXXXXXXXXX          ",
"    .......XXXXXXXXXXXX         ",
"    ...................X        ",
"    ......................      ",
"     ......................     ",
"      ......................    ",
"        .....................   ",
"         XXXXXXXXXXXX........   ",
"    ....XXXXXXXXXXXXXXX.....X   ",
"   ....XXXXX.XXXXXXXXXX....XX   ",
"   ....XXXXX.XXXXXXXXX....XX.   ",
"    ...XXXXXX...........XXX.    ",
"    ....XXXXXXXXXXXXXXXXX..     ",
"      ....XXXXXXXXXXX....       ",
"        .............           ",
"                                "};
